{"title":"Clean Bandit ft. Jess Glynne - Real Love (2014.Electronic)","uid":11659112,"size":104966266,"categoryP":"video","categoryS":"music_videos","magnet":"?xt=urn:btih:b481477504d0883250f4804f5f8adf8c26d91172&amp;dn=Clean+Bandit+ft.+Jess+Glynne+-+Real+Love+%282014.Electronic%29&amp;tr=udp%3A%2F%2Ftracker.openbittorrent.com%3A80&amp;tr=udp%3A%2F%2Fopen.demonii.com%3A1337&amp;tr=udp%3A%2F%2Ftracker.coppersurfer.tk%3A6969&amp;tr=udp%3A%2F%2Fexodus.desync.com%3A6969","seeders":11,"leechers":0,"uploader":"MeRaDil","files":-1,"time":1417969364,"description":"CLEAN BANDIT ft.JESS GLYNNE - REAL LOVE\n\n &lt;a href=&quot;\nhttp://gifyu.com/images/CleanBandit.png&quot; rel=&quot;nofollow&quot; target=&quot;_NEW&quot;&gt;\nhttp://gifyu.com/images/CleanBandit.png&lt;/a&gt;\n\n\nMPEG4 MUSIC VID\nGeneral\nClean Bandit ft. Jess Glynne - Real Love\nFormat                                   : MPEG-4\nFormat profile                           : Base Media\nCodec ID                                 : isom\nFile size                                : 100 MiB\nDuration                                 : 3mn 59s\nOverall bit rate                         : 3 505 Kbps\nMusicVid name                            : Real Love\nAlbum                                    : New Eyes (Special Edition)\nPerformer                                : Clean Bandit ft. Jess Glynne\nGenre                                    : Electronic\nContentType                              : Music Video\nRecorded date                            : 2014\nISRC                                     : The Promo Bay\nCopyright                                : Clean Bandit\nCover                                    : Yes\nRating                                   : ***\nMake                                     : MeRaDil\noday                                     : 20-10-2014  UK\nrati                                     : (Binary)\nArtist url                               : http://cleanbandit.co.uk\nlabel                                    : Atlantic . Warner\nrelease                                  : UK - october 20 - 2014\n\nVideo\nID                                       : 1\nFormat                                   : AVC\nFormat/Info                              : Advanced Video Codec\nFormat profile                           : &lt;a class=&quot;__cf_email__&quot; href=&quot;/cdn-cgi/l/email-protection&quot; data-cfemail=&quot;eda5848a85ada1d9c3dd&quot;&gt;[email&amp;#160;protected]&lt;/a&gt;&lt;script cf-hash='f9e31' type=&quot;text/javascript&quot;&gt;\n/* &lt;![CDATA[ */!function(){try{var t=&quot;currentScript&quot;in document?document.currentScript:function(){for(var t=document.getElementsByTagName(&quot;script&quot;),e=t.length;e--;)if(t[e].getAttribute(&quot;cf-hash&quot;))return t[e]}();if(t&amp;&amp;t.previousSibling){var e,r,n,i,c=t.previousSibling,a=c.getAttribute(&quot;data-cfemail&quot;);if(a){for(e=&quot;&quot;,r=parseInt(a.substr(0,2),16),n=2;a.length-n;n+=2)i=parseInt(a.substr(n,2),16)^r,e+=String.fromCharCode(i);e=document.createTextNode(e),c.parentNode.replaceChild(e,c)}}}catch(u){}}();/* ]]&gt; */&lt;/script&gt;\nFormat settings, CABAC                   : Yes\nFormat settings, ReFrames                : 2 frames\nCodec ID                                 : avc1\nCodec ID/Info                            : Advanced Video Coding\nDuration                                 : 3mn 59s\nBit rate                                 : 3 241 Kbps\nWidth                                    : 1 920 pixels\nHeight                                   : 1 080 pixels\nDisplay aspect ratio                     : 16:9\nFrame rate mode                          : Constant\nFrame rate                               : 25.000 fps\nColor space                              : YUV\nChroma subsampling                       : 4:2:0\nBit depth                                : 8 bits\nScan type                                : Progressive\nBits/(Pixel*Frame)                       : 0.063\nStream size                              : 92.6 MiB (92%)\n\nAudio\nID                                       : 2\nFormat                                   : AAC\nFormat/Info                              : Advanced Audio Codec\nFormat profile                           : LC\nCodec ID                                 : 40\nDuration                                 : 3mn 59s\nBit rate mode                            : Constant\nBit rate                                 : 256 Kbps\nChannel(s)                               : 2 channels\nChannel positions                        : Front: L R\nSampling rate                            : 44.1 KHz\nCompression mode                         : Lossy\nStream size                              : 7.31 MiB (7%)\n &lt;a href=&quot;\nhttps://thepiratebay.se/user/MeRaDil&quot; rel=&quot;nofollow&quot; target=&quot;_NEW&quot;&gt;\nhttps://thepiratebay.se/user/MeRaDil&lt;/a&gt;\n\nClean Bandit * New Eyes (Special Edition) * Jess Glynne * promo\n\n:)","torrent":{"xt":"urn:btih:b481477504d0883250f4804f5f8adf8c26d91172","amp;dn":"Clean+Bandit+ft.+Jess+Glynne+-+Real+Love+%282014.Electronic%29","amp;tr":["udp%3A%2F%2Ftracker.openbittorrent.com%3A80","udp%3A%2F%2Fopen.demonii.com%3A1337","udp%3A%2F%2Ftracker.coppersurfer.tk%3A6969","udp%3A%2F%2Fexodus.desync.com%3A6969"],"infoHash":"b481477504d0883250f4804f5f8adf8c26d91172","infoHashBuffer":{"type":"Buffer","data":[180,129,71,117,4,208,136,50,80,244,128,79,95,138,223,140,38,217,17,114]},"announce":[],"urlList":[]}}